<svg width="800" height="695" viewBox="0 0 800 695" fill="none" xmlns="http://www.w3.org/2000/svg">
<path d="M258.061 657.69C258.061 677.967 241.471 694.557 221.194 694.557H68.8124C48.5358 694.557 31.9458 677.967 31.9458 657.69V490.562C31.9458 470.285 48.5358 453.695 68.8124 453.695H221.194C241.471 453.695 258.061 470.285 258.061 490.562V657.69Z" fill="url(#paint0_linear_4305_17)"/>
<path d="M529.03 657.69C529.03 677.966 512.44 694.556 492.164 694.556H339.782C319.505 694.556 302.915 677.966 302.915 657.69V402.081C302.915 381.805 319.505 365.215 339.782 365.215H492.164C512.44 365.215 529.03 381.805 529.03 402.081V657.69Z" fill="url(#paint1_linear_4305_17)"/>
<path d="M800 657.688C800 677.965 783.41 694.555 763.133 694.555H610.751C590.475 694.555 573.885 677.965 573.885 657.688V303.769C573.885 283.492 590.475 266.902 610.751 266.902H763.133C783.41 266.902 800 283.492 800 303.769V657.688Z" fill="url(#paint2_linear_4305_17)"/>
<path d="M768.108 0.687709L602.515 40.9755C589.376 44.1559 586.449 54.5793 596.007 64.1376L631.343 98.6471C634.309 102.029 630.79 106.527 627.998 108.432C605.747 123.621 570.436 145.908 521.628 171.373C255.905 310.008 36.8614 301.504 33.568 301.354C15.9851 300.462 0.950915 314.007 0.0415392 331.619C-0.865379 349.242 12.6819 364.266 30.3041 365.173C31.5993 365.239 36.8663 365.478 45.7217 365.478C102.513 365.478 306.518 355.679 551.187 228.029C609.08 197.826 649.206 171.776 672.636 155.284C675.949 152.952 681.722 148.931 687.05 154.355L725.699 193.001C735.257 202.559 745.629 199.617 748.755 186.466L786.322 18.8187C789.444 5.6647 781.245 -2.49265 768.108 0.687709Z" fill="url(#paint3_linear_4305_17)"/>
<defs>
<linearGradient id="paint0_linear_4305_17" x1="26.9207" y1="549.677" x2="270.921" y2="549.677" gradientUnits="userSpaceOnUse">
<stop stop-color="#2563EB"/>
<stop offset="1" stop-color="#0891B2"/>
</linearGradient>
<linearGradient id="paint1_linear_4305_17" x1="297.89" y1="496.456" x2="541.891" y2="496.456" gradientUnits="userSpaceOnUse">
<stop stop-color="#2563EB"/>
<stop offset="1" stop-color="#0891B2"/>
</linearGradient>
<linearGradient id="paint2_linear_4305_17" x1="568.86" y1="437.32" x2="812.86" y2="437.32" gradientUnits="userSpaceOnUse">
<stop stop-color="#2563EB"/>
<stop offset="1" stop-color="#0891B2"/>
</linearGradient>
<linearGradient id="paint3_linear_4305_17" x1="-17.4913" y1="145.641" x2="831.746" y2="145.641" gradientUnits="userSpaceOnUse">
<stop stop-color="#2563EB"/>
<stop offset="1" stop-color="#0891B2"/>
</linearGradient>
</defs>
</svg>
